<svg width="44" height="63" viewBox="0 0 44 63" fill="none" xmlns="http://www.w3.org/2000/svg">
<path d="M25.4904 16.7974V0.427979H3.56729C2.10941 0.427979 0.936523 1.71586 0.936523 3.31669V59.1651C0.936523 60.766 2.10941 62.0539 3.56729 62.0539H40.398C41.8559 62.0539 43.0288 60.766 43.0288 59.1651V19.6861H28.1211C26.6742 19.6861 25.4904 18.3861 25.4904 16.7974ZM32.5057 45.203C32.5057 45.9974 31.9138 46.6474 31.1904 46.6474H12.775C12.0515 46.6474 11.4596 45.9974 11.4596 45.203V44.2401C11.4596 43.4457 12.0515 42.7958 12.775 42.7958H31.1904C31.9138 42.7958 32.5057 43.4457 32.5057 44.2401V45.203ZM32.5057 37.4998C32.5057 38.2942 31.9138 38.9442 31.1904 38.9442H12.775C12.0515 38.9442 11.4596 38.2942 11.4596 37.4998V36.5369C11.4596 35.7425 12.0515 35.0925 12.775 35.0925H31.1904C31.9138 35.0925 32.5057 35.7425 32.5057 36.5369V37.4998ZM32.5057 28.8337V29.7966C32.5057 30.591 31.9138 31.2409 31.1904 31.2409H12.775C12.0515 31.2409 11.4596 30.591 11.4596 29.7966V28.8337C11.4596 28.0393 12.0515 27.3893 12.775 27.3893H31.1904C31.9138 27.3893 32.5057 28.0393 32.5057 28.8337ZM43.0288 15.1002V15.8344H28.9981V0.427979H29.6667C30.3682 0.427979 31.0369 0.728886 31.5302 1.27052L42.2615 13.0661C42.7548 13.6077 43.0288 14.3419 43.0288 15.1002Z" fill="black"/>
</svg>
