<svg width="16" height="15" viewBox="0 0 16 15" fill="none" xmlns="http://www.w3.org/2000/svg">
<path d="M15.1736 12.3053L12.2906 9.70919C12.1604 9.59201 11.984 9.52692 11.799 9.52692H11.3276C12.1257 8.60774 12.6 7.4516 12.6 6.19391C12.6 3.20201 9.90781 0.777771 6.58526 0.777771C3.26272 0.777771 0.570557 3.20201 0.570557 6.19391C0.570557 9.1858 3.26272 11.61 6.58526 11.61C7.98195 11.61 9.26586 11.183 10.2866 10.4643V10.8888C10.2866 11.0554 10.3589 11.2143 10.489 11.3314L13.372 13.9275C13.6439 14.1723 14.0834 14.1723 14.3523 13.9275L15.1707 13.1906C15.4425 12.9459 15.4425 12.5501 15.1736 12.3053ZM6.58526 9.52692C4.54084 9.52692 2.88391 8.03748 2.88391 6.19391C2.88391 4.35294 4.53795 2.8609 6.58526 2.8609C8.62968 2.8609 10.2866 4.35034 10.2866 6.19391C10.2866 8.03488 8.63258 9.52692 6.58526 9.52692Z" fill="#635A5A"/>
</svg>
